<svg width="71" height="11" viewBox="0 0 71 11" fill="none" xmlns="http://www.w3.org/2000/svg">
<g clip-path="url(#clip0_4_531)">
<path d="M4.73956 0.0678101H6.60784V5.31543C6.60784 5.92189 6.47043 6.45023 6.19562 6.90044C5.9208 7.34801 5.53756 7.69492 5.0459 7.94122C4.55424 8.18486 3.98317 8.30668 3.33267 8.30668C2.67461 8.30668 2.09975 8.18486 1.6081 7.94122C1.11644 7.69492 0.734464 7.34801 0.462163 6.90044C0.189861 6.45023 0.0537109 5.92189 0.0537109 5.31543V0.0678101H1.92579V5.14461C1.92579 5.42534 1.98377 5.6756 2.09975 5.89541C2.21825 6.11521 2.3834 6.28735 2.59519 6.41182C2.80698 6.5363 3.0528 6.59853 3.33267 6.59853C3.61253 6.59853 3.8571 6.5363 4.06637 6.41182C4.27816 6.28735 4.4433 6.11521 4.56181 5.89541C4.68031 5.6756 4.73956 5.42534 4.73956 5.14461V0.0678101Z" fill="white"/>
<path d="M17.0358 0.0678101V8.2034H15.4474L12.3651 3.50796H12.3159V8.2034H10.4438V0.0678101H12.055L15.1032 4.75531H15.1676V0.0678101H17.0358Z" fill="white"/>
<path d="M20.6221 1.66473V0.0678101H27.1687V1.66473H24.82V8.2034H22.9745V1.66473H20.6221Z" fill="white"/>
<path d="M32.6172 0.0678101V8.2034H30.7451V0.0678101H32.6172Z" fill="white"/>
<path d="M36.2017 1.66473V0.0678101H42.7482V1.66473H40.3996V8.2034H38.5541V1.66473H36.2017Z" fill="white"/>
<path d="M46.3252 8.2034V0.0678101H48.1973V6.60647H51.4195V8.2034H46.3252Z" fill="white"/>
<path d="M55.0508 8.2034V0.0678101H60.4514V1.66473H56.9228V3.33317H60.1753V4.93407H56.9228V6.60647H60.4514V8.2034H55.0508Z" fill="white"/>
<path d="M67.1496 8.2034H64.2866V0.0678101H67.1458C67.935 0.0678101 68.6144 0.230681 69.1843 0.556422C69.7566 0.879516 70.1978 1.34561 70.508 1.95472C70.8181 2.56119 70.9731 3.28682 70.9731 4.13163C70.9731 4.97909 70.8181 5.70737 70.508 6.31648C70.2004 6.9256 69.7604 7.39302 69.188 7.71876C68.6158 8.04185 67.9362 8.2034 67.1496 8.2034ZM66.1587 6.52702H67.0777C67.5114 6.52702 67.8782 6.45023 68.1783 6.29662C68.4809 6.14037 68.709 5.88746 68.8628 5.53788C69.0191 5.18566 69.0973 4.71691 69.0973 4.13163C69.0973 3.54636 69.0191 3.08026 68.8628 2.73333C68.7065 2.38375 68.4758 2.13217 68.1707 1.97856C67.8681 1.82231 67.495 1.74419 67.0513 1.74419H66.1587V6.52702Z" fill="white"/>
<path d="M32.7155 10.9067H32.3569V9.6864H32.7314C32.8441 9.6864 32.9405 9.71083 33.0207 9.75967C33.1008 9.80815 33.1623 9.87788 33.205 9.96886C33.2478 10.0595 33.2692 10.1679 33.2692 10.2942C33.2692 10.4214 33.2476 10.5308 33.2045 10.6225C33.1614 10.7139 33.0986 10.7842 33.0162 10.8335C32.9337 10.8823 32.8335 10.9067 32.7155 10.9067ZM32.4976 10.7757H32.7064C32.8025 10.7757 32.8821 10.7562 32.9453 10.7172C33.0084 10.6784 33.0555 10.6229 33.0865 10.551C33.1175 10.4791 33.1331 10.3935 33.1331 10.2942C33.1331 10.1957 33.1177 10.1108 33.0871 10.0398C33.0565 9.9683 33.0107 9.91339 32.9498 9.87527C32.8889 9.83677 32.813 9.81747 32.7223 9.81747H32.4976V10.7757Z" fill="#FF43AE"/>
<path d="M34.3037 10.9067V9.6864H35.0048V9.81747H34.4444V10.2299H34.9685V10.3609H34.4444V10.7757H35.014V10.9067H34.3037Z" fill="#FF43AE"/>
<path d="M36.1049 9.6864L36.4499 10.7137H36.4635L36.8085 9.6864H36.956L36.5293 10.9067H36.3841L35.9575 9.6864H36.1049Z" fill="#FF43AE"/>
<path d="M38.5711 9.99153C38.5642 9.93113 38.5366 9.88424 38.4882 9.85087C38.4398 9.81749 38.3804 9.80081 38.3101 9.80081C38.2587 9.80081 38.2137 9.80957 38.1751 9.82709C38.1369 9.84453 38.107 9.86858 38.0854 9.89915C38.0642 9.92973 38.0537 9.9645 38.0537 10.0035C38.0537 10.036 38.061 10.0641 38.0758 10.0875C38.0909 10.1105 38.1102 10.1298 38.1336 10.1453C38.1571 10.1604 38.1817 10.1728 38.2074 10.1828C38.2331 10.1923 38.2567 10.2001 38.2783 10.206L38.3963 10.2394C38.4266 10.2477 38.4602 10.2593 38.4973 10.274C38.5348 10.2886 38.5704 10.3088 38.6045 10.3341C38.639 10.3592 38.6673 10.3914 38.6896 10.4307C38.7119 10.47 38.7231 10.5182 38.7231 10.5755C38.7231 10.6414 38.7066 10.701 38.6738 10.7543C38.6412 10.8075 38.5935 10.8497 38.5308 10.8811C38.4684 10.9126 38.3925 10.9282 38.3033 10.9282C38.2201 10.9282 38.148 10.9141 38.0871 10.8859C38.0266 10.8577 37.979 10.8184 37.9441 10.768C37.9098 10.7174 37.8903 10.6589 37.8857 10.5922H38.0309C38.0348 10.6382 38.0495 10.6763 38.0752 10.7065C38.1013 10.7364 38.1342 10.7586 38.1739 10.7733C38.214 10.7876 38.2572 10.7947 38.3033 10.7947C38.357 10.7947 38.4052 10.7856 38.448 10.7673C38.4907 10.7487 38.5246 10.7228 38.5495 10.6898C38.5744 10.6565 38.587 10.6176 38.587 10.573C38.587 10.5326 38.5761 10.4996 38.5546 10.4741C38.533 10.4488 38.5047 10.4281 38.4695 10.4122C38.4343 10.3963 38.3963 10.3824 38.3555 10.3705L38.2125 10.3276C38.1217 10.3002 38.0499 10.261 37.9969 10.2102C37.944 10.1593 37.9175 10.0928 37.9175 10.0106C37.9175 9.94222 37.9351 9.88265 37.9703 9.83185C38.0058 9.78058 38.0535 9.74087 38.1132 9.71262C38.1734 9.68409 38.2405 9.66974 38.3146 9.66974C38.3895 9.66974 38.456 9.68381 38.5143 9.71206C38.5726 9.73984 38.6187 9.77797 38.6527 9.82644C38.6872 9.87492 38.7053 9.92992 38.7072 9.99153H38.5711Z" fill="#FF43AE"/>
</g>
<defs>
<clipPath id="clip0_4_531">
<rect width="71" height="11" fill="white"/>
</clipPath>
</defs>
</svg>
